# xmcd
#
# Track frame offsets:
#	150
#	6764
#	14794
#	21539
#	29797
#	34908
#	37658
#	42323
#	47139
#	51705
#	55743
#	62082
#	66917
#	75466
#	91940
#	100856
#	107234
#	113662
#	120810
#	127309
#	141030
#	161630
#
# Disc length: 2455 seconds
#
# Revision: 1
# Processed by: cddbd v1.4PL0 Copyright (c) Steve Scherf et al.
# Submitted via: audiograbber 1.81.03
#
DISCID=35099516
DTITLE=Rupture - Cunt of God
DYEAR=1900
DGENRE=Scumfuckcore
TTITLE0=Toilet Paper Bible
TTITLE1=The 69th Floor
TTITLE2=(I Wanna Have a) Smack Overdose
TTITLE3=Fuckwasp
TTITLE4=Negation or Sedation?
TTITLE5=Exterminans 51-230769
TTITLE6=Keep my Grave Open
TTITLE7=Trillyon Sign
TTITLE8=Astral Robots
TTITLE9=Amen Semen
TTITLE10=Lucifer in the Sky with Diamonds
TTITLE11=Satan Slut
TTITLE12=Emergency 666
TTITLE13=Mentally Decapitated
TTITLE14=PSI War
TTITLE15=Tatooed Christian
TTITLE16=The Religion that Hath no Name
TTITLE17=The Cunt of God
TTITLE18=Stare at the Sun
TTITLE19=Martyr Hari Death Bop
TTITLE20=Poof Biff
TTITLE21=The Chosen One/ Foot in my Grave/ Erasor Evasor/ Vaticum City/ A Breat
TTITLE21=h of Cyanide/ The Nihilator
EXTD=
EXTT0=
EXTT1=
EXTT2=
EXTT3=
EXTT4=
EXTT5=
EXTT6=
EXTT7=
EXTT8=
EXTT9=
EXTT10=
EXTT11=
EXTT12=
EXTT13=
EXTT14=
EXTT15=
EXTT16=
EXTT17=
EXTT18=
EXTT19=
EXTT20=
EXTT21=
PLAYORDER=
